<svg xmlns="http://www.w3.org/2000/svg" viewBox="0 0 24 24"><defs><radialGradient id="ig_a" cx="30%" cy="107%" r="150%"><stop offset="0%" stop-color="#fd5"/><stop offset="10%" stop-color="#fd5"/><stop offset="50%" stop-color="#ff543e"/><stop offset="92%" stop-color="#c837ab"/></radialGradient><radialGradient id="ig_b" cx="149%" cy="17%" r="140%"><stop offset="0%" stop-color="#3771c8"/><stop offset="80%" stop-color="#3771c8" stop-opacity="0"/></radialGradient></defs><rect width="24" height="24" rx="6" fill="url(#ig_a)"/><rect width="24" height="24" rx="6" fill="url(#ig_b)"/><path fill="#fff" d="M12 7.2A4.8 4.8 0 1 0 12 16.8 4.8 4.8 0 0 0 12 7.2zm0 7.92A3.12 3.12 0 1 1 12 8.88 3.12 3.12 0 0 1 12 15.12zm5.04-8.16a1.08 1.08 0 1 1-2.16 0 1.08 1.08 0 0 1 2.16 0z"/></svg>
